<svg xmlns="http://www.w3.org/2000/svg" xmlns:xlink="http://www.w3.org/1999/xlink" width="48" height="48" viewBox="0 0 48 48"><defs><style>.a{fill:#e0f0ff;}.b{fill:url(#a);}.c{fill:#3eb5c1;}.d{fill:#fff;}.e{fill:#0066a6;}.f{fill:url(#b);}.g{fill:none;}</style><linearGradient id="a" x1="0.142" y1="1.008" x2="0.867" gradientUnits="objectBoundingBox"><stop offset="0" stop-color="#0066a6"/><stop offset="0.244" stop-color="#0069a6"/><stop offset="0.443" stop-color="#0073aa"/><stop offset="0.625" stop-color="#0084af"/><stop offset="0.798" stop-color="#009cb6"/><stop offset="0.963" stop-color="#00bbbf"/><stop offset="1" stop-color="#00c3c2"/></linearGradient><linearGradient id="b" x1="0.5" y1="1" x2="0.5" gradientUnits="objectBoundingBox"><stop offset="0" stop-color="#3076b8"/><stop offset="1" stop-color="#29b5d6"/></linearGradient></defs><ellipse class="a" cx="24" cy="6" rx="24" ry="6" transform="translate(0 36)"/><path class="b" d="M35.266,42.609l-4.514.282a106.6,106.6,0,0,1-13.3,0l-4.515-.282A3.852,3.852,0,0,1,9.2,38.769L10.028,9.3a2.9,2.9,0,0,1,2.785-2.731L18.4,6.191a85.022,85.022,0,0,1,11.4,0l5.587.374A2.9,2.9,0,0,1,38.171,9.3L39,38.769A3.853,3.853,0,0,1,35.266,42.609Z"/><path class="c" d="M33.842,40.265l-6.683.415a49.574,49.574,0,0,1-6.119,0l-6.683-.415A3.351,3.351,0,0,1,11.1,36.934l.722-25.563A2.522,2.522,0,0,1,14.253,9l5.851-.39a60.194,60.194,0,0,1,7.991,0L33.947,9a2.523,2.523,0,0,1,2.43,2.368L37.1,36.934A3.35,3.35,0,0,1,33.842,40.265Z"/><path class="d" d="M33.842,39.327l-6.683.415a49.185,49.185,0,0,1-6.119,0l-6.683-.415A3.351,3.351,0,0,1,11.1,36l.722-25.563a2.523,2.523,0,0,1,2.43-2.369L20.1,7.676a60.194,60.194,0,0,1,7.991,0l5.852.389a2.524,2.524,0,0,1,2.43,2.369L37.1,36A3.349,3.349,0,0,1,33.842,39.327Z"/><circle class="e" cx="2" cy="2" r="2" transform="translate(12.5 12.5)"/><circle class="e" cx="2" cy="2" r="2" transform="translate(12.5 18.5)"/><circle class="e" cx="2" cy="2" r="2" transform="translate(12.5 24.5)"/><circle class="e" cx="2" cy="2" r="2" transform="translate(12.5 30.5)"/><rect class="c" width="8" height="3" rx="1.5" transform="translate(7 13)"/><rect class="c" width="8" height="3" rx="1.5" transform="translate(7 19)"/><rect class="c" width="8" height="3" rx="1.5" transform="translate(7 25)"/><rect class="c" width="8" height="3" rx="1.5" transform="translate(7 31)"/><path class="f" d="M34,6.119V14.88a1.121,1.121,0,0,0,1.743.93l1.635-1.087a1.125,1.125,0,0,1,1.244,0l1.635,1.087A1.121,1.121,0,0,0,42,14.88V6.119A1.12,1.12,0,0,0,40.879,5H35.121A1.12,1.12,0,0,0,34,6.119Z"/><path class="e" d="M22.333,19.167A3.667,3.667,0,1,1,26,22.833,3.667,3.667,0,0,1,22.333,19.167ZM26,32c3.038,0,5.5-.472,5.5-2.75a5.5,5.5,0,0,0-11,0C20.5,31.528,22.962,32,26,32Z"/><rect class="g" width="48" height="48"/></svg>