<svg xmlns="http://www.w3.org/2000/svg" xmlns:xlink="http://www.w3.org/1999/xlink" width="48" height="48" viewBox="0 0 48 48"><defs><style>.a{fill:#e4f4ff;opacity:0;}.b{fill:#e0f0ff;}.c{fill:url(#a);}.d{fill:url(#b);}.e{fill:#fff;}.f{fill:url(#c);}.g,.i{fill:none;}.g{stroke:#0066a6;stroke-linecap:round;stroke-linejoin:round;}.h{fill:#0066a6;}.j{fill:url(#e);}</style><linearGradient id="a" y1="0.5" x2="1" y2="0.5" gradientUnits="objectBoundingBox"><stop offset="0" stop-color="#3076b8"/><stop offset="1" stop-color="#29b5d6"/></linearGradient><linearGradient id="b" x1="0.269" y1="1.031" x2="0.691" y2="0.136" gradientUnits="objectBoundingBox"><stop offset="0" stop-color="#0066a6"/><stop offset="0.244" stop-color="#0069a6"/><stop offset="0.443" stop-color="#0073aa"/><stop offset="0.625" stop-color="#0084af"/><stop offset="0.798" stop-color="#009cb6"/><stop offset="0.963" stop-color="#00bbbf"/><stop offset="1" stop-color="#00c3c2"/></linearGradient><linearGradient id="c" x1="0.5" y1="1" x2="0.5" y2="0" xlink:href="#a"/><linearGradient id="e" x1="-0.308" y1="0.166" x2="1.12" y2="0.166" xlink:href="#a"/></defs><g transform="translate(-17.441 -72.697)"><circle class="a" cx="24" cy="24" r="24" transform="translate(17.441 72.697)"/><g transform="translate(17.441 72.698)"><ellipse class="b" cx="24" cy="6" rx="24" ry="6" transform="translate(0 36)"/><path class="c" d="M12.3,11.862s-6.236-2.1-7.483.465,0,6.413,1.247,6.413S12.3,15.71,12.3,11.862Z"/><path class="d" d="M44.541,27.563V31.2a19.7,19.7,0,0,1-1.177,4.294l-2.838,5.739A1.637,1.637,0,0,1,38.988,42.3H36.294a1.66,1.66,0,0,1-1.538-1.042L33.528,39.7H26.406l-1.073,1.528A1.64,1.64,0,0,1,23.785,42.3H21.091a1.646,1.646,0,0,1-1.528-1.042l-1.269-1.631c-.268-.021-.537-.052-.8-.093l-.949,1.693a1.42,1.42,0,0,1-1.3,1.073h-2.24A1.4,1.4,0,0,1,11.73,41.26L9.376,35.748c-2.312-2.054-4.748-4.8-5.46-7.989C1.676,17.675,7.788,8.737,19.77,8.737a15.5,15.5,0,0,1,14.274,9.485,1.322,1.322,0,0,0,1.218.836h.774A8.533,8.533,0,0,1,44.541,27.563Z"/><path class="e" d="M42.477,30.856a6.3,6.3,0,0,1-.138,1.106,14.11,14.11,0,0,1-.56,2.006l-2.151,4.526a1.027,1.027,0,0,1-.96.671H36.987a1.035,1.035,0,0,1-.961-.651L34.632,36.6H25.364l-1.218,1.89a1,1,0,0,1-.948.671H21.5a1.035,1.035,0,0,1-.96-.65L19.151,36.6c-.372,0-.733-.02-1.1-.051a.063.063,0,0,1-.041-.01C9.449,35.572,5.32,30.412,5.32,23.7c0-7.132,4.533-12.9,13.934-12.9,5.15,0,10.6,2.54,12.675,6.916a4.647,4.647,0,0,0,4.432,3.023c3.237,0,6.116,3.4,6.116,6.565Z"/><path class="e" d="M25.364,36.6l-1.219,2.428a1,1,0,0,1-.948.671H21.5a1.034,1.034,0,0,1-.96-.649L19.151,36.6"/><path class="e" d="M41.779,33.968l-2.152,5.064a1.026,1.026,0,0,1-.96.671H36.986a1.034,1.034,0,0,1-.961-.65L34.632,36.6"/><rect class="f" width="13" height="8" rx="3.207" transform="translate(3 22.74)"/><rect class="e" width="1.857" height="4" rx="0.929" transform="translate(5.689 24.74)"/><rect class="e" width="1.857" height="4" rx="0.929" transform="translate(10.525 24.74)"/><path class="g" d="M15.446,20.74s0-2,1.5-2,1.5,2,1.5,2"/><path class="g" d="M7.37,20.74s0-2,1-2,1,2,1,2"/><path class="c" d="M20.752,12.74s6.972-3.6,8.406-.729,0,7.17-1.434,7.17S20.752,17.041,20.752,12.74Z"/><path class="h" d="M37.73,22.962h-3a4.981,4.981,0,0,1-3.344-1.092.5.5,0,0,1,.687-.726,4.023,4.023,0,0,0,2.657.818h3a.5.5,0,0,1,0,1Z"/><rect class="i" width="48" height="48"/><path class="j" d="M36.694,15.312c.007,0,.014.007.021,0h.05a.6.6,0,0,0,.1-.006h.029l.094-.019a.006.006,0,0,1,.007.006H37a.03.03,0,0,0,.021-.006,1.02,1.02,0,0,0,.2-.044,1.148,1.148,0,0,0,.194-.076,1.629,1.629,0,0,0,.344-.221l3.551-3.126a1.168,1.168,0,0,0,0-1.787,1.6,1.6,0,0,0-2.03,0l-.782.688V4.881A1.684,1.684,0,0,0,36.73,3.315a1.9,1.9,0,0,0-1.255.461,1.493,1.493,0,0,0-.516,1.105v5.84l-.782-.688a1.6,1.6,0,0,0-2.03,0,1.167,1.167,0,0,0,0,1.787L35.7,14.946a1.472,1.472,0,0,0,.739.341.032.032,0,0,0,.022.006h.007l.007-.006.093.019h.014A.791.791,0,0,0,36.694,15.312Z" transform="translate(3.727 0.726)"/></g></g></svg>