<svg xmlns="http://www.w3.org/2000/svg" xmlns:xlink="http://www.w3.org/1999/xlink" width="48" height="48" viewBox="0 0 48 48"><defs><style>.a,.i{fill:none;}.b{fill:#e0f0ff;}.c{clip-path:url(#a);}.d{fill:url(#b);}.e{fill:#3eb5c1;}.f{fill:#fff;}.g{fill:url(#c);}.h{fill:#0066a6;}.i{stroke:#fff;stroke-linecap:round;stroke-linejoin:round;stroke-width:1.5px;}</style><clipPath id="a"><rect class="a" width="48" height="48"/></clipPath><linearGradient id="b" x1="0.125" y1="0.999" x2="0.884" y2="0.009" gradientUnits="objectBoundingBox"><stop offset="0" stop-color="#0066a6"/><stop offset="0.244" stop-color="#0069a6"/><stop offset="0.443" stop-color="#0073aa"/><stop offset="0.625" stop-color="#0084af"/><stop offset="0.798" stop-color="#009cb6"/><stop offset="0.963" stop-color="#00bbbf"/><stop offset="1" stop-color="#00c3c2"/></linearGradient><linearGradient id="c" x1="0.5" y1="1" x2="0.5" gradientUnits="objectBoundingBox"><stop offset="0" stop-color="#3076b8"/><stop offset="1" stop-color="#29b5d6"/></linearGradient></defs><g transform="translate(-195.94 -8.979)"><g transform="translate(195.94 8.979)"><ellipse class="b" cx="24" cy="6" rx="24" ry="6" transform="translate(0 36)"/><g class="c"><path class="d" d="M35.166,44.814l-4.514.3a100.109,100.109,0,0,1-13.3,0l-4.514-.3a4,4,0,0,1-3.733-4.1l.827-31.44a3,3,0,0,1,2.786-2.913l5.586-.4a80.028,80.028,0,0,1,11.4,0l5.586.4a3,3,0,0,1,2.786,2.913l.827,31.44A4,4,0,0,1,35.166,44.814Z"/><path class="e" d="M33.742,42.313l-6.682.443a46.291,46.291,0,0,1-6.12,0l-6.682-.443A3.478,3.478,0,0,1,11,38.76l.722-27.268a2.61,2.61,0,0,1,2.43-2.527L20,8.55A56.4,56.4,0,0,1,28,8.55l5.851.415a2.61,2.61,0,0,1,2.43,2.527L37,38.76A3.478,3.478,0,0,1,33.742,42.313Z"/><path class="f" d="M33.742,41.313l-6.682.443a46.291,46.291,0,0,1-6.12,0l-6.682-.443A3.478,3.478,0,0,1,11,37.76l.722-27.268a2.61,2.61,0,0,1,2.43-2.527L20,7.55A56.4,56.4,0,0,1,28,7.55l5.851.415a2.61,2.61,0,0,1,2.43,2.527L37,37.76A3.478,3.478,0,0,1,33.742,41.313Z"/><path class="g" d="M20.509,2.558h6.982c.932,0,1.744.937,1.97,2.273l.532,3.145a.5.5,0,0,1-.5.583H18.508a.5.5,0,0,1-.5-.583l.532-3.145C18.765,3.495,19.577,2.558,20.509,2.558Z"/><circle class="h" cx="6" cy="6" r="6" transform="translate(18 11)"/><path class="f" d="M23.1,21.012a1.721,1.721,0,0,1-.968-.294,2.228,2.228,0,0,1-.717-.77,2.026,2.026,0,0,1-.273-1.023V17.96a2.027,2.027,0,0,1,.273-1.043,2.134,2.134,0,0,1,.717-.745,1.835,1.835,0,0,1,.991-.277,1.582,1.582,0,0,1,.9.246,1.735,1.735,0,0,1,.545.55V15.045H23.535a.271.271,0,0,1-.24-.126.506.506,0,0,1-.084-.283.53.53,0,0,1,.084-.288.268.268,0,0,1,.24-.132h1.034v-.86a.3.3,0,0,1,.178-.257.859.859,0,0,1,.423-.1.763.763,0,0,1,.406.1.3.3,0,0,1,.162.257v.86h.411a.281.281,0,0,1,.246.132.5.5,0,0,1,.089.288.472.472,0,0,1-.089.288.288.288,0,0,1-.246.121h-.411v5.516a.319.319,0,0,1-.162.252.679.679,0,0,1-.406.115.625.625,0,0,1-.373-.115.32.32,0,0,1-.161-.252v-.367a1.454,1.454,0,0,1-.59.572A1.846,1.846,0,0,1,23.1,21.012Zm.334-.975a1.033,1.033,0,0,0,.579-.168,1.564,1.564,0,0,0,.406-.372.625.625,0,0,0,.15-.331V17.96a1,1,0,0,0-.167-.587A1.129,1.129,0,0,0,23.979,17a1.158,1.158,0,0,0-.534-.131,1.093,1.093,0,0,0-.573.157,1.167,1.167,0,0,0-.411.409,1,1,0,0,0-.151.524v.965a1.057,1.057,0,0,0,.151.535,1.146,1.146,0,0,0,.4.419A1.069,1.069,0,0,0,23.434,20.037Z"/><rect class="e" width="18" height="2" rx="1" transform="translate(15 26)"/><rect class="e" width="18" height="2" rx="1" transform="translate(15 31)"/><rect class="e" width="18" height="2" rx="1" transform="translate(15 36)"/><circle class="h" cx="6" cy="6" r="6" transform="translate(18 11)"/><path class="i" d="M21,17.5l2,2,4-4"/></g></g></g></svg>